<svg width="387" height="173" viewBox="0 0 387 173" fill="none" xmlns="http://www.w3.org/2000/svg">
<path d="M382.62 0C380.16 7.91 363.45 15.12 363.45 15.12L325.11 26.76C304.3 13.85 287.68 8.54 275.63 6.62H275.52C214.33 -5.88 171.08 16.89 171.08 16.89C156.274 24.0193 142.059 32.3155 128.57 41.7C103.86 59.88 89.67 72.46 82.4 79.48C79.1305 82.6474 76.0895 86.0426 73.3 89.64C36.18 137.13 0 120.36 0 120.36C8.84935 130.381 18.7835 139.39 29.62 147.22C35.8817 151.687 42.806 155.142 50.14 157.46C73.94 165 103 169.34 103 169.34C116.66 172.11 139.89 172.76 152 172.91C157.223 172.966 162.435 172.413 167.53 171.26C219.88 159.38 232.93 146.49 232.93 146.49L244.48 84L308.36 56.74L301.44 78.98C280.9 124.27 245.93 139.84 244.31 140.54C278.18 131.23 304.68 103.13 304.68 103.13C323.93 79.72 341 42 341 42C357.84 30.44 368.85 28.68 372.87 28.46C374.43 28.38 376.98 28.07 378.52 27.82L386.76 26.47L382.62 0ZM136.82 162.4C129.862 162.214 122.925 161.546 116.06 160.4C103.9 158.35 83.27 154.56 69.65 150.32C56.226 146.373 43.4189 140.57 31.6 133.08C31.6 133.08 54.2 133.5 80.93 96.75C80.93 96.75 122.31 50.09 158.13 37.26C157.83 37.7 135.13 70.78 131 96.96C130.717 98.7056 130.523 100.465 130.42 102.23C130.17 105.02 130.04 107.69 130 110.23C103 134 66 135 66 135C116 134 126 126 130.89 124C131.536 128.262 132.687 132.431 134.32 136.42C140.59 152.51 153.32 159.24 165.2 161.81C155.76 162.569 146.283 162.766 136.82 162.4ZM168.26 161.47V161.4H168.54L168.26 161.47ZM177.42 93.23L175 106.58L216 90.4L216.36 114.49C189.36 126.77 176.79 127.4 176.79 127.4C154.16 125.73 163.66 83.21 163.66 83.21C167.59 68.11 173.86 59.15 178.36 50.58C179.653 48.0308 181.116 45.5719 182.74 43.22C182.81 43.12 182.87 43.02 182.94 42.93C193.87 26.68 209 18.46 223.84 14.57C248.94 8.01 273.08 13.86 274.05 14.1C304.44 26.33 304.18 39.29 304.18 39.29L177.42 93.23Z" fill="url(#paint0_linear_166_37)"/>
<path d="M382.62 0C380.16 7.91 363.45 15.12 363.45 15.12L325.11 26.76C304.3 13.85 287.68 8.54 275.63 6.62H275.52C214.33 -5.88 171.08 16.89 171.08 16.89C156.274 24.0193 142.059 32.3155 128.57 41.7C103.86 59.88 89.67 72.46 82.4 79.48C79.1305 82.6474 76.0895 86.0426 73.3 89.64C36.18 137.13 0 120.36 0 120.36C8.84935 130.381 18.7835 139.39 29.62 147.22C35.8817 151.687 42.806 155.142 50.14 157.46C73.94 165 103 169.34 103 169.34C116.66 172.11 139.89 172.76 152 172.91C157.223 172.966 162.435 172.413 167.53 171.26C219.88 159.38 232.93 146.49 232.93 146.49L244.48 84L308.36 56.74L301.44 78.98C280.9 124.27 245.93 139.84 244.31 140.54C278.18 131.23 304.68 103.13 304.68 103.13C323.93 79.72 341 42 341 42C357.84 30.44 368.85 28.68 372.87 28.46C374.43 28.38 376.98 28.07 378.52 27.82L386.76 26.47L382.62 0ZM136.82 162.4C129.862 162.214 122.925 161.546 116.06 160.4C103.9 158.35 83.27 154.56 69.65 150.32C56.226 146.373 43.4189 140.57 31.6 133.08C31.6 133.08 54.2 133.5 80.93 96.75C80.93 96.75 122.31 50.09 158.13 37.26C157.83 37.7 135.13 70.78 131 96.96C130.717 98.7056 130.523 100.465 130.42 102.23C130.17 105.02 130.04 107.69 130 110.23C103 134 66 135 66 135C116 134 126 126 130.89 124C131.536 128.262 132.687 132.431 134.32 136.42C140.59 152.51 153.32 159.24 165.2 161.81C155.76 162.569 146.283 162.766 136.82 162.4ZM168.26 161.47V161.4H168.54L168.26 161.47ZM177.42 93.23L175 106.58L216 90.4L216.36 114.49C189.36 126.77 176.79 127.4 176.79 127.4C154.16 125.73 163.66 83.21 163.66 83.21C167.59 68.11 173.86 59.15 178.36 50.58C179.653 48.0308 181.116 45.5719 182.74 43.22C182.81 43.12 182.87 43.02 182.94 42.93C193.87 26.68 209 18.46 223.84 14.57C248.94 8.01 273.08 13.86 274.05 14.1C304.44 26.33 304.18 39.29 304.18 39.29L177.42 93.23Z" fill="#CACACA"/>
<defs>
<linearGradient id="paint0_linear_166_37" x1="0" y1="86.46" x2="386.78" y2="86.46" gradientUnits="userSpaceOnUse">
<stop stop-color="#B28557"/>
<stop offset="0.03" stop-color="#AD8150"/>
<stop offset="0.12" stop-color="#A0763C"/>
<stop offset="0.21" stop-color="#996F30"/>
<stop offset="0.3" stop-color="#966D2C"/>
<stop offset="0.37" stop-color="#A07839"/>
<stop offset="0.49" stop-color="#BA965C"/>
<stop offset="0.66" stop-color="#E5C593"/>
<stop offset="0.68" stop-color="#ECCD9C"/>
<stop offset="0.76" stop-color="#E2C090"/>
<stop offset="0.91" stop-color="#C69E6F"/>
<stop offset="1" stop-color="#B28557"/>
</linearGradient>
</defs>
</svg>
