<svg width="255" height="308" viewBox="0 0 255 308" fill="none" xmlns="http://www.w3.org/2000/svg">
<path d="M87.9815 211V101.909H131.021C139.26 101.909 146.291 103.383 152.115 106.33C157.974 109.242 162.431 113.379 165.485 118.741C168.575 124.068 170.119 130.336 170.119 137.545C170.119 144.789 168.557 151.021 165.432 156.241C162.307 161.426 157.779 165.403 151.849 168.173C145.954 170.943 138.816 172.328 130.435 172.328H101.618V153.791H126.707C131.11 153.791 134.768 153.187 137.68 151.98C140.592 150.773 142.758 148.962 144.178 146.547C145.634 144.132 146.362 141.131 146.362 137.545C146.362 133.923 145.634 130.869 144.178 128.383C142.758 125.897 140.574 124.015 137.626 122.737C134.714 121.423 131.039 120.766 126.6 120.766H111.046V211H87.9815ZM146.895 161.355L174.008 211H148.546L122.019 161.355H146.895Z" fill="#CACACA"/>
<path d="M120 305.519C122.4 308.011 131 308.115 136 306.038L127.5 291.5L120 305.519Z" fill="#CACACA"/>
<path d="M126.49 0L120.25 2.38636L126.49 21L133.25 2.38636L126.49 0Z" fill="#CACACA"/>
<path d="M127.5 13.75L13.5 61.9948V173.364C13.6508 205.527 36.6619 274.632 127.5 293.75" stroke="#CACACA" stroke-width="27"/>
<path d="M127.5 14L241.5 62.2448V173.614C241.349 205.777 218.338 274.882 127.5 294" stroke="#CACACA" stroke-width="27"/>
</svg>
