<svg width="84" height="84" viewBox="0 0 84 84" fill="none" xmlns="http://www.w3.org/2000/svg">
<path d="M70 14L28.42 55.58M50.645 50.68L70 70M28.42 28.42L42 42M31.5 21C31.5 26.799 26.799 31.5 21 31.5C15.201 31.5 10.5 26.799 10.5 21C10.5 15.201 15.201 10.5 21 10.5C26.799 10.5 31.5 15.201 31.5 21ZM31.5 63C31.5 68.799 26.799 73.5 21 73.5C15.201 73.5 10.5 68.799 10.5 63C10.5 57.201 15.201 52.5 21 52.5C26.799 52.5 31.5 57.201 31.5 63Z" stroke="#CACACA" stroke-width="5" stroke-linecap="round" stroke-linejoin="round"/>
</svg>
