<svg width="372" height="192" viewBox="0 0 372 192" fill="none" xmlns="http://www.w3.org/2000/svg">
<path d="M51.3672 30.0781C46.0938 30.0781 42.2201 32.3893 39.7461 37.0117H21.875C23.3073 30.1107 26.7578 24.4466 32.2266 20.0195C37.8255 15.4622 44.1732 13.2161 51.2695 13.2812C59.6029 13.2812 66.6992 16.2109 72.5586 22.0703C78.418 27.9297 81.3477 35.026 81.3477 43.3594C81.3477 53.7109 77.1159 61.8815 68.6523 67.8711C66.0482 69.694 63.2487 71.0938 60.2539 72.0703C68.457 79.9479 73.9258 88.9648 76.6602 99.1211C77.5716 102.507 78.0273 106.413 78.0273 110.84C78.0924 115.202 77.2135 119.954 75.3906 125.098C73.5026 130.306 70.8008 135.156 67.2852 139.648C59.7331 149.154 49.4792 155.957 36.5234 160.059L21.6797 145.312C11.3932 135.026 6.25 125.944 6.25 118.066C6.25 112.337 8.75651 106.543 13.7695 100.684L24.5117 112.988C23.3398 114.616 22.7539 116.016 22.7539 117.188C22.7539 118.359 23.0794 119.629 23.7305 120.996C24.4466 122.298 25.3581 123.698 26.4648 125.195C27.5065 126.693 28.7435 128.223 30.1758 129.785L40.5273 140.82C50.4232 135.547 56.9336 127.995 60.0586 118.164C60.9701 115.169 61.4258 112.012 61.4258 108.691C61.4909 105.371 60.7096 102.018 59.082 98.6328C57.5195 95.1823 55.599 92.3177 53.3203 90.0391L29.8828 107.715L0 70.9961L33.0078 41.6016L39.8438 50C43.3594 54.362 47.2005 56.543 51.3672 56.543C55.0781 56.543 58.2031 55.2734 60.7422 52.7344C63.3464 50.1302 64.6484 47.0052 64.6484 43.3594C64.6484 39.6484 63.3464 36.5234 60.7422 33.9844C58.2031 31.3802 55.0781 30.0781 51.3672 30.0781ZM48.6328 73.3398C41.7969 72.6888 35.8398 70.0521 30.7617 65.4297L22.6562 72.0703L32.6172 85.2539L48.6328 73.3398ZM113.477 39.6484V123.828C113.477 128.841 114.453 133.073 116.406 136.523C118.359 139.974 121.615 143.294 126.172 146.484L116.699 160.059C106.087 153.353 99.8047 145.345 97.8516 136.035C97.2005 132.91 96.875 129.557 96.875 125.977V39.6484H113.477ZM113.379 32.7148L97.9492 27.5391L109.57 0L126.855 6.93359L113.379 32.7148ZM153.027 136.23C153.027 138.77 154.069 140.625 156.152 141.797L175.098 127.637V62.4023L161.426 73.0469C155.827 77.4089 153.027 83.3333 153.027 90.8203V136.23ZM194.922 160.059C187.956 155.762 182.878 150.846 179.688 145.312L159.961 160.059C149.479 158.171 142.318 153.418 138.477 145.801C137.109 143.066 136.426 139.876 136.426 136.23V90.8203C136.426 77.6693 141.211 67.513 150.781 60.3516L181.641 37.0117L191.699 42.1875V123.828C191.699 128.841 192.676 133.073 194.629 136.523C196.582 139.974 199.837 143.294 204.395 146.484L194.922 160.059ZM221.484 147.07C219.271 147.07 217.513 150.423 216.211 157.129H199.609C202.148 139.29 209.44 130.371 221.484 130.371C222.786 130.371 224.023 130.469 225.195 130.664V73.7305C225.13 71.0612 224.316 67.7734 222.754 63.8672C219.759 56.4453 218.262 51.4648 218.262 48.9258C218.262 46.3867 218.49 44.2383 218.945 42.4805C219.466 40.7227 220.312 38.9648 221.484 37.207C223.763 33.7565 227.669 29.6549 233.203 24.9023L244.531 37.4023L239.941 41.5039C236.621 44.5638 234.961 47.0052 234.961 48.8281C234.961 51.7578 235.775 54.6875 237.402 57.6172L262.305 37.0117L270.508 46.582C276.367 53.4831 280.143 59.4076 281.836 64.3555C283.594 69.2383 284.473 73.5677 284.473 77.3438V115.43C284.473 128.19 280.306 137.826 271.973 144.336L251.758 160.059L241.895 155.078V191.504H225.195V147.461C223.893 147.201 222.656 147.07 221.484 147.07ZM241.895 75.6836V136.328C244.824 137.891 246.712 138.9 247.559 139.355C248.405 139.746 249.219 140.169 250 140.625L261.523 131.445C265.69 128.125 267.773 122.786 267.773 115.43V77.3438C267.773 72.2005 265.332 66.5039 260.449 60.2539L241.895 75.6836ZM308.594 147.07C306.38 147.07 304.622 150.423 303.32 157.129H286.719C289.258 139.29 296.549 130.371 308.594 130.371C309.896 130.371 311.133 130.469 312.305 130.664V73.7305C312.24 71.0612 311.426 67.7734 309.863 63.8672C306.868 56.4453 305.371 51.4648 305.371 48.9258C305.371 46.3867 305.599 44.2383 306.055 42.4805C306.576 40.7227 307.422 38.9648 308.594 37.207C310.872 33.7565 314.779 29.6549 320.312 24.9023L331.641 37.4023L327.051 41.5039C323.73 44.5638 322.07 47.0052 322.07 48.8281C322.07 51.7578 322.884 54.6875 324.512 57.6172L349.414 37.0117L357.617 46.582C363.477 53.4831 367.253 59.4076 368.945 64.3555C370.703 69.2383 371.582 73.5677 371.582 77.3438V115.43C371.582 128.19 367.415 137.826 359.082 144.336L338.867 160.059L329.004 155.078V191.504H312.305V147.461C311.003 147.201 309.766 147.07 308.594 147.07ZM329.004 75.6836V136.328C331.934 137.891 333.822 138.9 334.668 139.355C335.514 139.746 336.328 140.169 337.109 140.625L348.633 131.445C352.799 128.125 354.883 122.786 354.883 115.43V77.3438C354.883 72.2005 352.441 66.5039 347.559 60.2539L329.004 75.6836Z" fill="#CACACA"/>
</svg>
