<svg width="68" height="73" viewBox="0 0 68 73" fill="none" xmlns="http://www.w3.org/2000/svg">
<path d="M26.0518 70.895L3.55304 44.717C-3.30375 54.7579 1.64821 64.2011 4.98137 67.6676C11.8382 75.4135 21.8853 73.0466 26.0518 70.895Z" fill="#CACACA"/>
<path d="M35.337 65.5161L2.4819 27.5041C-3.2321 16.0287 2.24355 7.66125 5.69575 4.91196C9.69555 0.321839 16.6476 -0.108488 19.6236 0.250114C24.4805 0.250114 29.2659 3.83617 31.0516 5.62919L22.1235 13.1599C19.2665 10.0041 15.2192 11.845 13.5527 13.1599C10.41 16.3156 11.7669 20.2125 12.8383 21.7664L43.9083 57.6267C47.9081 63.0775 52.479 61.3323 54.2647 59.7783C58.5502 56.3357 56.0503 51.8891 54.2647 50.0961L34.9802 27.5041C28.9805 17.0693 34.3847 8.09479 37.8369 4.91196C42.1224 -0.251931 50.3362 -0.347559 53.9075 0.250114C58.7644 1.5569 62.1213 4.38067 63.1927 5.62919L54.2647 13.1599C51.122 10.0041 47.4795 11.845 46.051 13.1599C42.5871 15.168 43.6551 19.7343 44.6222 21.7664L62.4788 42.2067C72.4783 53.9689 66.6452 64.0816 62.4788 67.6676C51.0508 77.9954 39.6225 70.5365 35.337 65.5161Z" fill="#CACACA"/>
</svg>
