<svg id="Layer_1" data-name="Layer 1" xmlns="http://www.w3.org/2000/svg" viewBox="0 0 566.77 189.9"><defs><style>.cls-1{fill:#cacaca;}</style></defs><path class="cls-1" d="M461.5,471.25c-5.65-.43-11.29-1-16.92-1.53s-11.24-1.18-16.85-1.81-11.23-1.29-16.82-2-11.2-1.39-16.79-2.15l5.64-1.4c-4.49,4.37-9,8.74-13.5,13s-9,8.68-13.59,12.94L359,501.18,345.22,513.9c-4.57,4.27-9.23,8.42-13.85,12.63s-9.23,8.43-13.91,12.56c-9.33,8.3-18.62,16.66-28,24.84l-1.66-22.55,14.32,8.3c4.78,2.77,9.51,5.61,14.26,8.41,9.5,5.61,19,11.22,28.45,16.93s18.88,11.42,28.28,17.2l14.08,8.69,14.05,8.75L385,610.2q27-18.65,54.4-36.72c9.15-6,18.25-12.07,27.48-18l13.8-8.9,13.87-8.79c9.23-5.88,18.59-11.59,27.89-17.38s18.72-11.4,28.17-17C569.49,492.29,588.5,481.28,608,471c-16.25,14.91-33,29.12-49.86,43.15-8.43,7-16.95,13.92-25.46,20.83S515.59,548.69,507,555.41L494,565.53l-13,10c-8.65,6.71-17.43,13.24-26.15,19.85Q428.58,615.07,402,634.31l-7.75,5.59-8.44-5-14.2-8.5-14.17-8.56q-14.15-8.58-28.22-17.3c-9.39-5.79-18.72-11.69-28.05-17.57-4.66-2.95-9.35-5.86-14-8.84l-13.93-9L256.73,554.5l14.86-11.92c9.73-7.82,19.61-15.47,29.45-23.16,4.9-3.87,9.89-7.63,14.84-11.45s9.89-7.63,14.9-11.37l15-11.27,15.07-11.16c5-3.74,10.11-7.38,15.16-11.07s10.15-7.31,15.25-10.94l3-2.16,2.61.76c5.41,1.57,10.81,3.2,16.21,4.84s10.79,3.32,16.18,5S440,464,445.42,465.79,456.15,469.36,461.5,471.25Z" transform="translate(-256.73 -450)"/><path class="cls-1" d="M618.73,471.25c5.35-1.89,10.72-3.69,16.09-5.46s10.75-3.49,16.14-5.19,10.78-3.38,16.18-5,10.8-3.27,16.22-4.84L686,450l3,2.16c5.1,3.63,10.2,7.25,15.25,10.94s10.15,7.33,15.16,11.07l15.08,11.16,15,11.27c5,3.74,9.93,7.59,14.9,11.37s9.93,7.58,14.84,11.45c9.83,7.69,19.71,15.34,29.45,23.16L823.5,554.5,807,565.12l-13.92,9c-4.64,3-9.33,5.89-14,8.84-9.34,5.88-18.67,11.78-28.06,17.57s-18.78,11.58-28.22,17.3l-14.16,8.56-14.21,8.5-8.44,5-7.75-5.59q-26.61-19.18-52.85-38.92c-8.72-6.61-17.5-13.14-26.14-19.85l-13-10-12.93-10.12c-8.65-6.72-17.17-13.62-25.74-20.44s-17-13.81-25.45-20.83c-16.87-14-33.62-28.24-49.87-43.15,19.51,10.29,38.51,21.3,57.39,32.48,9.45,5.58,18.8,11.29,28.17,17s18.66,11.5,27.89,17.38l13.88,8.79,13.8,8.9c9.22,5.89,18.32,12,27.48,18q27.35,18.15,54.4,36.72l-16.19-.54,14-8.75,14.09-8.69q14.1-8.67,28.28-17.2c9.44-5.71,18.95-11.32,28.44-16.93,4.76-2.8,9.49-5.64,14.26-8.41l14.33-8.3-1.67,22.55c-9.43-8.18-18.72-16.54-28.05-24.84-4.68-4.13-9.27-8.37-13.91-12.56s-9.27-8.36-13.85-12.63l-13.77-12.72-13.67-12.84c-4.57-4.26-9.07-8.62-13.59-12.94s-9-8.68-13.5-13l5.63,1.4c-5.58.76-11.18,1.46-16.78,2.15s-11.21,1.35-16.82,2-11.23,1.24-16.86,1.81S624.39,470.82,618.73,471.25Z" transform="translate(-256.73 -450)"/></svg>